<svg width="19" height="20" viewBox="0 0 19 20" fill="none" xmlns="http://www.w3.org/2000/svg">
<path fill-rule="evenodd" clip-rule="evenodd" d="M0.162464 8.60272C2.53671 12.3553 5.0561 16.0045 7.51126 19.6987C7.73574 20.0366 7.89246 20.054 8.10425 19.6096C11.2489 13.0186 14.3308 6.77786 17.4736 0.184758C17.5564 0.0216837 17.3606 -0.06824 17.2637 0.0669751L7.89718 14.888L1.0109 8.10598C0.964792 8.06069 0.89067 8.06134 0.845379 8.10728C0.800092 8.15339 0.800742 8.22751 0.846682 8.27247L7.76925 15.0904L7.54639 15.4429L0.450746 8.35476C0.125741 8.02894 -0.206938 8.02063 0.161907 8.60336L0.162464 8.60272Z" fill="#47D618"/>
<path d="M17.9754 0.0661148C18.0033 0.00795753 18.0733 -0.0163187 18.1315 0.0115401C18.1895 0.0393976 18.2139 0.10945 18.1859 0.167608L8.61172 19.9348C8.54574 20.072 8.3351 19.9707 8.40124 19.8333L17.9754 0.0661148Z" fill="#47D618"/>
</svg>
