<svg width="86" height="90" viewBox="0 0 86 90" fill="none" xmlns="http://www.w3.org/2000/svg">
<path d="M6.56277 32.5008L7.01743 32.7333L7.01743 32.7333L6.56277 32.5008ZM23.6405 88.9773C23.9228 88.939 24.117 88.6943 24.0742 88.4307L23.3759 84.1359C23.3331 83.8723 23.0694 83.6897 22.787 83.728C22.5046 83.7663 22.3104 84.011 22.3533 84.2746L22.974 88.0922L18.8834 88.647C18.601 88.6854 18.4069 88.9301 18.4497 89.1936C18.4926 89.4572 18.7562 89.6398 19.0386 89.6015L23.6405 88.9773ZM6.1081 32.2683C-3.19409 48.2147 1.12133 62.4031 7.73046 72.561C11.0324 77.6359 14.9104 81.7138 17.9604 84.5219C19.4861 85.9266 20.8066 87.0153 21.747 87.7539C22.2173 88.1232 22.5927 88.4051 22.8515 88.5952C22.9809 88.6903 23.0811 88.7625 23.1495 88.8112C23.1836 88.8356 23.2098 88.8541 23.2277 88.8667C23.2367 88.873 23.2436 88.8778 23.2483 88.8811C23.2507 88.8827 23.2525 88.884 23.2539 88.8849C23.2545 88.8854 23.2551 88.8858 23.2554 88.886C23.2559 88.8863 23.2562 88.8866 23.5629 88.5001C23.8696 88.1136 23.8696 88.1136 23.8695 88.1136C23.8693 88.1134 23.8691 88.1133 23.8687 88.113C23.8678 88.1124 23.8664 88.1114 23.8646 88.1101C23.8608 88.1075 23.8548 88.1033 23.8469 88.0977C23.8309 88.0865 23.8066 88.0694 23.7744 88.0464C23.71 88.0005 23.6139 87.9313 23.4887 87.8393C23.2382 87.6552 22.8715 87.3799 22.4104 87.0178C21.4881 86.2935 20.1884 85.2221 18.6848 83.8378C15.6762 81.0678 11.8589 77.0521 8.61388 72.0646C2.1292 62.0979 -2.05543 48.2865 7.01743 32.7333L6.1081 32.2683ZM85.5596 0.518682C62.4086 0.518681 24.6478 0.486407 6.1081 32.2683L7.01743 32.7333C25.2278 1.51582 62.3073 1.48312 85.5661 1.48312L85.5596 0.518682Z" fill="#64E021"/>
</svg>
