<svg width="86" height="90" viewBox="0 0 86 90" fill="none" xmlns="http://www.w3.org/2000/svg">
<path fill-rule="evenodd" clip-rule="evenodd" d="M62.0182 88.4307C61.9754 88.6943 62.1696 88.939 62.4519 88.9773L67.0538 89.6015C67.3362 89.6398 67.5998 89.4572 67.6427 89.1936C67.6855 88.93 67.4914 88.6853 67.209 88.647L63.7905 88.1834C63.9566 88.0568 64.1421 87.9135 64.3454 87.7539C65.2858 87.0153 66.6063 85.9266 68.132 84.5219C71.182 81.7138 75.06 77.6359 78.3619 72.561C84.9711 62.4031 89.2865 48.2147 79.9843 32.2683C61.4634 0.518589 23.7603 0.518642 0.603209 0.518679L0.532822 0.518678L0.526338 1.48312C23.7851 1.48311 60.8646 1.51581 79.075 32.7333C88.1478 48.2865 83.9632 62.0979 77.4785 72.0646C74.2335 77.0521 70.4162 81.0678 67.4076 83.8377C65.904 85.2221 64.6043 86.2935 63.682 87.0178C63.522 87.1435 63.3733 87.2587 63.237 87.3632L63.7391 84.2746C63.782 84.011 63.5878 83.7663 63.3054 83.728C63.023 83.6897 62.7593 83.8723 62.7165 84.1359L62.0182 88.4307Z" fill="#64E021"/>
</svg>
