<svg width="38" height="40" viewBox="0 0 38 40" fill="none" xmlns="http://www.w3.org/2000/svg">
<path d="M34.92 30.4938C32.9455 29.1622 30.098 28.0599 26.9293 27.0954C26.7458 27.0496 26.5619 27.1412 26.5161 27.3251L23.4851 36.0045C23.3931 36.3261 22.9799 36.3261 22.8422 36.0503L20.4083 31.6877C20.3163 31.5042 20.3624 31.3203 20.5002 31.1826C23.5312 28.3354 22.2453 25.9932 19.1224 25.7177H19.0766H19.0308C15.954 25.9473 14.6682 28.3354 17.653 31.1826C17.7908 31.3203 17.7908 31.5042 17.745 31.6877L15.3107 36.0507C15.173 36.3262 14.7597 36.2803 14.6678 36.0049L11.6371 27.3254C11.5913 27.1419 11.3617 27.0499 11.2239 27.0957C8.05514 28.0603 5.25383 29.1622 3.23322 30.4941C1.2587 31.78 0.523847 34.6732 0.891231 37.5661V37.658C1.25866 38.9439 1.85578 39.7706 2.68223 39.9542C2.72804 39.9542 2.72804 40 2.77416 40H35.2417C35.2875 40 35.2875 39.9542 35.3337 39.9542C36.2063 39.7706 36.7572 38.9439 37.1704 37.7039V37.6119C37.6291 34.6729 36.8946 31.78 34.9198 30.4938H34.92Z" fill="white"/>
<path d="M8.74385 17.1302H10.2136C10.3055 17.1302 10.3513 17.0844 10.3971 17.0383C10.7645 17.9109 11.2236 18.6915 11.7287 19.4722L11.7745 19.518C11.9123 19.7477 12.1419 20.0232 12.3716 20.3444C12.4174 20.3903 12.4635 20.4822 12.5094 20.528V20.5738C12.5552 20.6196 12.6013 20.6657 12.6471 20.7574L12.6929 20.8032C13.5655 21.8593 14.8513 23.0535 16.4588 23.788C18.7549 24.8441 20.9591 24.7525 23.485 22.9615C24.0821 22.5483 24.6789 21.9512 25.2301 21.2625H25.873C27.5263 21.2625 28.904 19.9309 28.904 18.2315V17.1292H29.3634C30.1899 17.1292 30.8789 16.4405 30.8789 15.6138V12.7206C30.8789 11.8941 30.1901 11.2051 29.3634 11.2051H29.2715C29.7308 5.41888 25.2762 0.275422 19.4439 0.0458074C19.3981 0.0458074 19.352 0 19.352 0C16.6426 0 14.4381 0.82645 12.6013 2.29615C9.93779 4.45453 8.60611 7.853 8.9274 11.2511H8.78966C7.96321 11.2511 7.2742 11.9398 7.2742 12.7666V15.6598C7.2742 16.4411 7.91743 17.1302 8.7439 17.1302L8.74385 17.1302ZM26.1487 20.115C26.4242 19.7018 26.6996 19.2886 26.9751 18.8292C27.2967 18.2782 27.5722 17.6811 27.8477 17.084C27.8477 17.084 27.8935 17.084 27.8935 17.1298V18.3238C27.8481 19.2886 27.1132 20.0692 26.1487 20.1151L26.1487 20.115ZM11.3615 12.1244C11.3615 12.0324 11.4534 11.9408 11.5911 11.8947C13.7495 11.5731 15.2651 10.1956 16.1376 7.85337C16.1834 7.66981 16.4592 7.62368 16.5508 7.80756C18.8011 10.8844 21.189 12.1702 26.9294 11.9405C27.0672 11.9405 27.1591 12.0324 27.2049 12.1701C27.4346 14.1908 26.9294 16.7624 25.7814 18.9208C25.5517 19.3341 25.322 19.7473 25.0466 20.1147H21.5104V19.2883C21.5104 18.7831 21.0972 18.3237 20.5458 18.3237H19.3058C18.8007 18.3237 18.3413 18.737 18.3413 19.2883V20.6661C18.3413 20.9877 18.571 21.217 18.8923 21.217H24.0817C23.1633 22.1816 22.061 22.9161 20.7294 23.3754C20.1784 23.559 19.5813 23.6509 18.9842 23.559C17.0097 23.3293 15.2184 22.2274 13.8409 20.5741C12.188 18.5538 11.1319 15.5686 11.3616 12.1243L11.3615 12.1244Z" fill="white"/>
</svg>
