<svg width="176" height="73" viewBox="0 0 176 73" fill="none" xmlns="http://www.w3.org/2000/svg">
<path d="M0.72508 62.0824C0.494413 62.2342 0.430509 62.5442 0.582334 62.7749L3.05649 66.5337C3.20831 66.7644 3.51838 66.8283 3.74904 66.6764C3.97969 66.5246 4.04361 66.2146 3.89178 65.9839L1.69253 62.6427L5.03369 60.4435C5.26434 60.2917 5.32826 59.9816 5.17643 59.7509C5.02459 59.5203 4.71454 59.4564 4.48388 59.6082L0.72508 62.0824ZM157.057 2.65662C161.182 0.850059 163.676 1.19411 165.162 2.7225C165.932 3.51429 166.491 4.67537 166.849 6.18447C167.206 7.69121 167.356 9.51186 167.332 11.5851C167.237 19.9015 164.367 31.9411 161.568 43.1519C160.172 48.7425 158.796 54.1219 157.804 58.6945C156.816 63.2496 156.194 67.0713 156.338 69.5228C156.409 70.723 156.669 71.7539 157.323 72.3208C158.041 72.9433 159.014 72.8487 160.071 72.3321C161.138 71.8106 162.455 70.7895 164.059 69.2393C165.669 67.6825 167.597 65.5651 169.884 62.8201L169.116 62.1799C166.841 64.9101 164.939 66.9977 163.364 68.5203C161.781 70.0497 160.555 70.9824 159.632 71.4337C158.698 71.89 158.234 71.7872 157.978 71.5651C157.657 71.2872 157.405 70.637 157.336 69.4641C157.201 67.1693 157.79 63.4769 158.781 58.9065C159.769 54.3535 161.14 48.9958 162.538 43.3942C165.328 32.2207 168.235 20.0552 168.332 11.5965C168.356 9.47606 168.205 7.56732 167.822 5.95361C167.439 4.34223 166.818 2.99177 165.879 2.02546C163.947 0.0376708 160.905 -0.120627 156.655 1.74061L157.057 2.65662ZM169.884 62.8201C172.179 60.0664 173.8 57.6888 174.792 55.6487C175.781 53.6146 176.168 51.8662 175.919 50.3944C175.665 48.8944 174.764 47.7637 173.366 46.9585C171.986 46.1635 170.109 45.6759 167.837 45.4229C163.289 44.9165 156.98 45.333 149.432 46.3152C141.874 47.2985 133.034 48.8547 123.409 50.6455C104.148 54.2288 81.7307 58.753 60.0301 61.5398C38.3218 64.3277 17.3907 65.3677 1.10092 62.0103L0.899045 62.9897C17.3594 66.3823 38.4283 65.3222 60.1575 62.5317C81.8944 59.7402 104.352 55.2079 123.592 51.6286C133.216 49.838 142.032 48.2863 149.561 47.3068C157.098 46.326 163.305 45.9246 167.726 46.4167C169.938 46.6629 171.658 47.1287 172.867 47.825C174.058 48.5113 174.738 49.4101 174.933 50.5615C175.133 51.7411 174.838 53.2663 173.893 55.2115C172.95 57.1507 171.384 59.4585 169.116 62.1799L169.884 62.8201Z" fill="#64E021"/>
</svg>
