<svg width="38" height="38" viewBox="0 0 38 38" fill="none" xmlns="http://www.w3.org/2000/svg">
<path d="M3.31113 36.345C3.31113 37.0914 3.90821 37.7021 4.66827 37.7021H17.6426V20.7107H3.31113V36.345Z" fill="#64E021"/>
<path d="M20.3568 37.7021H33.3311C34.0912 37.7021 34.6883 37.0914 34.6883 36.345V20.7107H20.3568V37.7021Z" fill="#64E021"/>
<path d="M36.6425 6.32431H27.2511C27.2917 6.08015 27.3053 5.83567 27.3053 5.59151C27.3053 2.93144 25.1339 0.76001 22.4738 0.76001C21.7141 0.76001 20.9949 0.936617 20.3569 1.24864C19.8546 1.4928 19.3933 1.83209 18.9998 2.2392C18.6063 1.83206 18.1449 1.49277 17.6426 1.24864C17.0046 0.936624 16.2855 0.76001 15.5254 0.76001C12.8653 0.76001 10.6939 2.93144 10.6939 5.59151C10.6939 5.83567 10.7075 6.08015 10.7618 6.32431H1.35714C0.610714 6.32431 0 6.92139 0 7.68145V16.6386C0 17.385 0.610714 17.9957 1.35714 17.9957H17.6429V6.32431H20.3571V17.9957H36.6429C37.3893 17.9957 38 17.385 38 16.6386V7.68145C38 6.92139 37.3893 6.32431 36.6429 6.32431H36.6425ZM17.5068 6.32431H13.5438C13.4487 6.09347 13.4081 5.84931 13.4081 5.59151C13.4081 4.42429 14.3581 3.47429 15.5253 3.47429C16.6925 3.47429 17.6425 4.42429 17.6425 5.59151C17.6425 5.84931 17.6019 6.09378 17.5068 6.32431ZM20.3568 5.59151C20.3568 4.42429 21.3068 3.47429 22.474 3.47429C23.6413 3.47429 24.5913 4.42429 24.5913 5.59151C24.5913 5.84931 24.5507 6.09378 24.4555 6.32431H20.4925C20.3974 6.09377 20.3568 5.84931 20.3568 5.59151Z" fill="#64E021"/>
</svg>
