<svg width="30" height="30" viewBox="0 0 30 30" fill="none" xmlns="http://www.w3.org/2000/svg">
<g clip-path="url(#clip0_747_600)">
<path d="M22.8923 5.88462L17.5846 1.03846C16.0846 -0.346154 13.8923 -0.346154 12.3923 1.03846L6.96924 5.88462C6.16155 6.57692 5.70001 7.61539 5.70001 8.76923V26.1923C5.70001 28.2692 7.43078 30 9.50771 30H20.2385C22.3154 30 24.0462 28.2692 24.0462 26.1923V8.76923C24.1616 7.61539 23.7 6.57692 22.8923 5.88462ZM14.9308 3.11538C15.7385 3.11538 16.4308 3.80769 16.4308 4.61539C16.4308 5.42308 15.7385 6.11539 14.9308 6.11539C14.1231 6.11539 13.4308 5.42308 13.4308 4.61539C13.4308 3.80769 14.1231 3.11538 14.9308 3.11538ZM17.7 20.5385C17.3539 20.7692 16.7769 21 16.3154 21.1154V21.9231H13.5462V21.1154C13.3154 21 13.2 21 12.9692 20.8846C12.3923 20.6538 11.9308 20.3077 11.5846 19.8462C11.2385 19.3846 11.1231 18.9231 11.1231 18.3462H13.4308C13.4308 18.8077 13.6616 19.0385 13.8923 19.2692C14.2385 19.5 14.5846 19.6154 15.0462 19.6154C15.5077 19.6154 15.8539 19.5 16.0846 19.3846C16.3154 19.2692 16.4308 19.0385 16.4308 18.6923C16.4308 18.4615 16.3154 18.2308 15.9692 18C15.6231 17.8846 15.1616 17.6538 14.5846 17.5385C12.3923 17.0769 11.3539 16.2692 11.3539 14.8846C11.3539 14.0769 11.7 13.5 12.3923 12.9231C12.7385 12.6923 13.0846 12.4615 13.5462 12.3462V11.5385H16.3154V12.3462C16.8923 12.4615 17.3539 12.6923 17.7 12.9231C18.3923 13.5 18.7385 14.0769 18.7385 14.8846H16.3154C16.3154 14.5385 16.2 14.3077 15.9692 14.0769C15.7385 13.8462 15.3923 13.7308 14.9308 13.7308C14.4692 13.7308 14.2385 13.8462 14.0077 13.9615C13.7769 14.1923 13.6616 14.3077 13.6616 14.6538C13.6616 14.8846 13.7769 15.1154 14.0077 15.2308C14.2385 15.3462 14.7 15.4615 15.2769 15.5769C15.8539 15.6923 16.4308 15.8077 16.7769 15.9231C18.0462 16.3846 18.7385 17.1923 18.7385 18.2308C18.7385 19.3846 18.3923 20.0769 17.7 20.5385Z" fill="#606060"/>
<rect x="10.5" y="9.8999" width="9.9" height="14.7" fill="#606060"/>
<path d="M15.1241 21.9C14.4185 21.9 13.8305 21.7921 13.3601 21.5763C12.8896 21.3515 12.5368 21.0368 12.3016 20.6322C12.0664 20.2185 11.9488 19.7285 11.9488 19.162C11.9488 19.0361 11.9532 18.9147 11.9619 18.7978C11.9793 18.6719 12.0054 18.5505 12.0403 18.4337H11.4V17.4356H12.5368C12.6152 17.3366 12.7024 17.2467 12.7982 17.1658C12.894 17.0759 12.9942 16.9905 13.0987 16.9095C13.212 16.8286 13.3296 16.7522 13.4515 16.6802C13.5735 16.5993 13.6998 16.5274 13.8305 16.4644H11.4V15.4663H15.7644C15.8777 15.3584 15.9604 15.2371 16.0127 15.1022C16.0737 14.9583 16.1042 14.7965 16.1042 14.6166C16.1042 14.4188 16.0563 14.2525 15.9604 14.1176C15.8733 13.9827 15.7426 13.8793 15.5684 13.8074C15.3942 13.7354 15.1764 13.6995 14.9151 13.6995C14.6798 13.6995 14.4446 13.7219 14.2094 13.7669C13.9829 13.8119 13.7434 13.8748 13.4907 13.9557C13.2381 14.0366 12.9681 14.1401 12.6806 14.2659L12.0926 12.6744C12.5455 12.4676 13.016 12.3057 13.5038 12.1888C14.0004 12.0629 14.523 12 15.0719 12C15.6817 12 16.2044 12.1034 16.6399 12.3102C17.0842 12.508 17.4283 12.8048 17.6722 13.2004C17.9161 13.596 18.0381 14.0816 18.0381 14.6571C18.0381 14.801 18.0294 14.9403 18.012 15.0752C17.9945 15.2101 17.9684 15.3405 17.9336 15.4663H18.6V16.4644H17.3847C17.2889 16.5723 17.18 16.6757 17.0581 16.7747C16.9448 16.8646 16.8229 16.95 16.6922 17.0309C16.5702 17.1029 16.4396 17.1748 16.3002 17.2467C16.1695 17.3097 16.0345 17.3726 15.8951 17.4356H18.6V18.4337H14.131C14.0439 18.5326 13.9786 18.645 13.935 18.7708C13.9002 18.8877 13.8828 19.0181 13.8828 19.162C13.8828 19.3778 13.9307 19.5666 14.0265 19.7285C14.131 19.8813 14.2835 20.0027 14.4838 20.0926C14.6929 20.1736 14.9455 20.214 15.2417 20.214C15.7122 20.214 16.1739 20.1601 16.6269 20.0522C17.0798 19.9353 17.5328 19.7824 17.9858 19.5936V21.2931C17.6112 21.4819 17.18 21.6302 16.6922 21.7381C16.2043 21.8461 15.6817 21.9 15.1241 21.9Z" fill="white"/>
</g>
<defs>
<clipPath id="clip0_747_600">
<rect width="30" height="30" fill="white"/>
</clipPath>
</defs>
</svg>
