<svg width="220" height="220" viewBox="0 0 220 220" fill="none" xmlns="http://www.w3.org/2000/svg">
<g filter="url(#filter0_d_747_565)">
<ellipse cx="109.77" cy="110" rx="99.7701" ry="100" fill="white"/>
</g>
<path d="M38.2776 86.1566L22.8223 78.7555L28.3783 67.1532L43.8336 74.5543L42.9111 76.4808L29.1658 69.8986L25.4653 77.6263L39.2105 84.2084L38.2776 86.1566Z" fill="#64E021"/>
<path d="M38.5828 59.3018C39.5178 58.0232 40.7142 57.3222 42.172 57.199C43.6392 57.0628 45.2705 57.6511 47.0657 58.9639C48.241 59.8233 49.1032 60.7313 49.6524 61.688C50.1982 62.6222 50.4416 63.5634 50.3827 64.5113C50.3203 65.437 49.9727 66.3324 49.3399 67.1978C48.9527 67.7273 48.5369 68.1467 48.0926 68.4561C47.6484 68.7655 47.2078 68.9885 46.771 69.125C46.3308 69.2391 45.8995 69.3003 45.4772 69.3087L45.3922 69.4249C45.6306 69.5596 45.9272 69.7368 46.2819 69.9566C46.6366 70.1763 46.9366 70.3759 47.182 70.5553L51.444 73.672L50.1974 75.3768L35.164 64.3835L36.184 62.9887L37.7682 63.7904L37.8249 63.7129C37.6789 63.289 37.5872 62.8453 37.5496 62.3817C37.5214 61.9052 37.5827 61.4148 37.7334 60.9106C37.8935 60.3934 38.1767 59.8571 38.5828 59.3018ZM39.7897 60.6601C39.2797 61.3575 39.0045 62.0185 38.964 62.643C38.9107 63.2581 39.0779 63.8561 39.4658 64.4371C39.8536 65.018 40.4497 65.6124 41.2539 66.2203L41.5832 66.4612C42.4356 67.0845 43.225 67.523 43.9513 67.7766C44.6776 68.0302 45.3516 68.0573 45.9732 67.8577C46.6043 67.6453 47.1937 67.1645 47.7415 66.4154C48.2043 65.7826 48.4077 65.1385 48.3518 64.4831C48.3053 63.8148 48.0558 63.1666 47.6034 62.5384C47.1475 61.8879 46.5321 61.2793 45.7572 60.7126C44.569 59.8438 43.4497 59.3821 42.3994 59.3276C41.3585 59.2602 40.4886 59.7043 39.7897 60.6601Z" fill="#64E021"/>
<path d="M58.1431 48.2523C58.8774 49.0333 59.4246 49.8255 59.7847 50.6289C60.1455 51.4097 60.3308 52.1908 60.3407 52.9721C60.3622 53.7425 60.2032 54.4959 59.8636 55.2325C59.5246 55.9465 59.023 56.6159 58.3585 57.2406C57.7407 57.8215 57.0709 58.2536 56.3491 58.537C55.6163 58.8087 54.8603 58.9156 54.081 58.8576C53.3018 58.7996 52.522 58.5775 51.7415 58.1913C50.9618 57.7824 50.2048 57.1874 49.4704 56.4064C48.495 55.369 47.8479 54.3303 47.529 53.2905C47.1992 52.239 47.1853 51.2198 47.4874 50.233C47.7785 49.2346 48.3728 48.3134 49.2704 47.4695C50.1213 46.6695 51.0482 46.1604 52.051 45.9422C53.0545 45.7015 54.0767 45.7726 55.1176 46.1556C56.1591 46.5159 57.1676 47.2148 58.1431 48.2523ZM51.0616 54.9104C51.7521 55.6448 52.4481 56.1982 53.1497 56.5707C53.8521 56.9206 54.5442 57.0495 55.2262 56.9573C55.9082 56.8651 56.5639 56.5231 57.1934 55.9313C57.8228 55.3394 58.2046 54.706 58.3386 54.031C58.4725 53.356 58.3807 52.6627 58.0631 51.9511C57.7461 51.2169 57.2424 50.4827 56.5519 49.7483C55.8505 49.0023 55.1541 48.4601 54.4627 48.1219C53.7714 47.7836 53.0902 47.6664 52.4191 47.7703C51.7488 47.8515 51.0931 48.1935 50.452 48.7963C49.4961 49.695 49.0985 50.6619 49.259 51.6969C49.4195 52.7318 50.0204 53.803 51.0616 54.9104Z" fill="#64E021"/>
<path d="M65.0396 35.305L71.0212 44.6413L72.5974 43.6314L75.9637 48.8855L74.246 49.986L71.8378 46.2273L64.3001 51.0566L66.7083 54.8153L65.0108 55.9028L61.6446 50.6487L62.5135 50.092C62.5808 48.8327 62.4929 47.5684 62.2497 46.2991C62.0113 45.0076 61.6393 43.7448 61.1336 42.5106C60.6328 41.2543 60.0352 40.0695 59.3409 38.9561L65.0396 35.305ZM61.8105 39.3406C62.3435 40.2913 62.8106 41.3317 63.2117 42.4619C63.6041 43.5786 63.9033 44.6981 64.1092 45.8203C64.3286 46.9339 64.4097 47.965 64.3525 48.9138L69.3035 45.7418L64.2153 37.7999L61.8105 39.3406Z" fill="#64E021"/>
<path d="M77.0229 28.8804C78.4761 28.2916 79.6804 28.1747 80.6357 28.5299C81.591 28.8852 82.3511 29.7597 82.916 31.1536L86.2059 39.2724L84.7823 39.8492L83.7191 38.312L83.6302 38.348C83.4634 38.9163 83.2547 39.4238 83.0041 39.8706C82.7624 40.2966 82.4313 40.6724 82.0109 40.9982C81.6053 41.3179 81.0688 41.613 80.4015 41.8834C79.6898 42.1718 78.9936 42.3071 78.3132 42.2894C77.6475 42.2657 77.0464 42.0604 76.5099 41.6736C75.9673 41.2719 75.5338 40.6707 75.2093 39.87C74.7286 38.6837 74.8262 37.5824 75.502 36.5662C76.1718 35.5352 77.466 34.5964 79.3845 33.7499L81.3816 32.863L81.0932 32.1512C80.6906 31.1577 80.1962 30.5553 79.6099 30.344C79.0236 30.1327 78.3375 30.1863 77.5516 30.5048C76.9288 30.7571 76.3747 31.0939 75.8893 31.515C75.3979 31.9213 74.9556 32.3422 74.5624 32.7778L73.367 31.5531C73.7718 31.061 74.2911 30.5744 74.9247 30.0932C75.5524 29.5971 76.2518 29.1929 77.0229 28.8804ZM80.179 35.0076C78.7202 35.6678 77.7857 36.3227 77.3756 36.9723C76.9804 37.6158 76.936 38.3157 77.2425 39.072C77.5129 39.7393 77.9113 40.1475 78.4379 40.2967C78.9793 40.4398 79.5688 40.3822 80.2065 40.1238C81.2148 39.7152 81.9415 39.1014 82.3864 38.2823C82.8254 37.4484 82.8105 36.4532 82.3418 35.2965L81.9092 34.2288L80.179 35.0076Z" fill="#64E021"/>
<path d="M89.4488 25.0434L90.5132 30.2885L97.3577 28.8997L96.2934 23.6545L98.3632 23.2345L100.921 35.8416L98.8516 36.2616L97.7109 30.6402L90.8664 32.0291L92.007 37.6505L89.9372 38.0705L87.379 25.4634L89.4488 25.0434Z" fill="#64E021"/>
<path d="M116.003 28.8662C116.019 29.9381 115.89 30.8922 115.615 31.7285C115.355 32.5486 114.966 33.2507 114.447 33.8348C113.944 34.4186 113.319 34.8683 112.572 35.1838C111.84 35.4831 111.018 35.6398 110.107 35.6538C109.259 35.6669 108.473 35.535 107.748 35.2581C107.024 34.9652 106.393 34.5349 105.856 33.9671C105.319 33.3993 104.893 32.7098 104.576 31.8985C104.275 31.0711 104.117 30.1214 104.1 29.0495C104.078 27.6257 104.3 26.4221 104.765 25.4389C105.229 24.4396 105.906 23.6771 106.794 23.1513C107.681 22.6096 108.741 22.3293 109.973 22.3103C111.141 22.2923 112.169 22.5405 113.057 23.0549C113.961 23.553 114.668 24.2942 115.179 25.2785C115.706 26.2465 115.981 27.4424 116.003 28.8662ZM106.284 29.0159C106.299 30.0238 106.441 30.9017 106.708 31.6497C106.992 32.3814 107.416 32.9429 107.983 33.3342C108.549 33.7256 109.264 33.9146 110.128 33.9013C110.991 33.888 111.7 33.677 112.254 33.2685C112.808 32.8599 113.207 32.2857 113.452 31.5458C113.712 30.7897 113.835 29.9077 113.819 28.8998C113.803 27.876 113.654 27.0062 113.371 26.2904C113.088 25.5747 112.663 25.0292 112.097 24.6538C111.547 24.2623 110.832 24.0733 109.952 24.0868C108.641 24.107 107.695 24.5536 107.117 25.4266C106.538 26.2997 106.26 27.4961 106.284 29.0159Z" fill="#64E021"/>
<path d="M61.1237 122.964C59.7227 122.964 58.2529 122.907 56.7142 122.792C55.1754 122.677 53.7171 122.551 52.3391 122.413V118.382H61.3304C62.1572 118.382 62.8002 118.244 63.2595 117.969C63.7418 117.693 64.0748 117.337 64.2586 116.901C64.4653 116.442 64.5686 115.971 64.5686 115.488V113.732C64.5686 112.928 64.3619 112.296 63.9485 111.837C63.5581 111.355 62.8921 111.113 61.9505 111.113H59.9524C59.1945 111.113 58.6204 111.274 58.2299 111.596C57.8625 111.894 57.6213 112.365 57.5065 113.008H52.6836L53.407 97.2992H68.7025V101.881H57.7821L57.5065 107.944C57.851 107.577 58.3218 107.301 58.9189 107.117C59.539 106.911 60.228 106.807 60.9859 106.807H63.7763C65.1083 106.807 66.2107 107.071 67.0834 107.6C67.9561 108.128 68.6107 108.851 69.047 109.77C69.4834 110.666 69.7016 111.676 69.7016 112.801V116.556C69.7016 118.049 69.3686 119.266 68.7025 120.208C68.0365 121.15 67.0719 121.85 65.8088 122.309C64.5457 122.746 62.984 122.964 61.1237 122.964Z" fill="#64E021"/>
<path d="M79.8098 122.93C78.3858 122.93 77.1686 122.688 76.1581 122.206C75.1706 121.701 74.4127 120.954 73.8845 119.967C73.3792 118.979 73.1266 117.774 73.1266 116.35V103.948C73.1266 102.455 73.3907 101.203 73.9189 100.193C74.4471 99.1595 75.2165 98.3901 76.227 97.8849C77.2605 97.3566 78.4662 97.0925 79.8442 97.0925H85.1494C86.5963 97.0925 87.7905 97.3681 88.7321 97.9193C89.6967 98.4475 90.4201 99.2284 90.9024 100.262C91.3847 101.272 91.6259 102.501 91.6259 103.948V116.35C91.6259 118.486 91.0517 120.116 89.9034 121.242C88.7781 122.367 87.1934 122.93 85.1494 122.93H79.8098ZM81.0155 118.348H83.7714C84.713 118.348 85.402 118.118 85.8384 117.659C86.2977 117.199 86.5274 116.51 86.5274 115.592V104.43C86.5274 103.42 86.2977 102.708 85.8384 102.294C85.3791 101.881 84.759 101.674 83.9781 101.674H80.8432C79.9935 101.674 79.3389 101.904 78.8796 102.363C78.4433 102.823 78.2251 103.512 78.2251 104.43V115.557C78.2251 116.522 78.4662 117.234 78.9485 117.693C79.4308 118.13 80.1198 118.348 81.0155 118.348Z" fill="#64E021"/>
<path d="M110.996 122.93C109.572 122.93 108.355 122.688 107.344 122.206C106.357 121.701 105.599 120.954 105.071 119.967C104.565 118.979 104.313 117.774 104.313 116.35V103.948C104.313 102.455 104.577 101.203 105.105 100.193C105.633 99.1595 106.403 98.3901 107.413 97.8849C108.447 97.3566 109.652 97.0925 111.03 97.0925H116.335C117.782 97.0925 118.977 97.3681 119.918 97.9193C120.883 98.4475 121.606 99.2284 122.088 100.262C122.571 101.272 122.812 102.501 122.812 103.948V116.35C122.812 118.486 122.238 120.116 121.089 121.242C119.964 122.367 118.379 122.93 116.335 122.93H110.996ZM112.202 118.348H114.957C115.899 118.348 116.588 118.118 117.024 117.659C117.484 117.199 117.713 116.51 117.713 115.592V104.43C117.713 103.42 117.484 102.708 117.024 102.294C116.565 101.881 115.945 101.674 115.164 101.674H112.029C111.18 101.674 110.525 101.904 110.066 102.363C109.629 102.823 109.411 103.512 109.411 104.43V115.557C109.411 116.522 109.652 117.234 110.135 117.693C110.617 118.13 111.306 118.348 112.202 118.348Z" fill="#64E021"/>
<path d="M133.3 122.93C131.876 122.93 130.659 122.688 129.649 122.206C128.661 121.701 127.903 120.954 127.375 119.967C126.87 118.979 126.617 117.774 126.617 116.35V103.948C126.617 102.455 126.881 101.203 127.41 100.193C127.938 99.1595 128.707 98.3901 129.718 97.8849C130.751 97.3566 131.957 97.0925 133.335 97.0925H138.64C140.087 97.0925 141.281 97.3681 142.223 97.9193C143.187 98.4475 143.911 99.2284 144.393 100.262C144.875 101.272 145.117 102.501 145.117 103.948V116.35C145.117 118.486 144.542 120.116 143.394 121.242C142.269 122.367 140.684 122.93 138.64 122.93H133.3ZM134.506 118.348H137.262C138.204 118.348 138.893 118.118 139.329 117.659C139.788 117.199 140.018 116.51 140.018 115.592V104.43C140.018 103.42 139.788 102.708 139.329 102.294C138.87 101.881 138.25 101.674 137.469 101.674H134.334C133.484 101.674 132.83 101.904 132.37 102.363C131.934 102.823 131.716 103.512 131.716 104.43V115.557C131.716 116.522 131.957 117.234 132.439 117.693C132.921 118.13 133.61 118.348 134.506 118.348Z" fill="#64E021"/>
<path d="M155.605 122.93C154.181 122.93 152.964 122.688 151.953 122.206C150.966 121.701 150.208 120.954 149.68 119.967C149.174 118.979 148.922 117.774 148.922 116.35V103.948C148.922 102.455 149.186 101.203 149.714 100.193C150.242 99.1595 151.012 98.3901 152.022 97.8849C153.056 97.3566 154.261 97.0925 155.639 97.0925H160.945C162.392 97.0925 163.586 97.3681 164.527 97.9193C165.492 98.4475 166.215 99.2284 166.698 100.262C167.18 101.272 167.421 102.501 167.421 103.948V116.35C167.421 118.486 166.847 120.116 165.699 121.242C164.573 122.367 162.989 122.93 160.945 122.93H155.605ZM156.811 118.348H159.567C160.508 118.348 161.197 118.118 161.634 117.659C162.093 117.199 162.323 116.51 162.323 115.592V104.43C162.323 103.42 162.093 102.708 161.634 102.294C161.174 101.881 160.554 101.674 159.773 101.674H156.638C155.789 101.674 155.134 101.904 154.675 102.363C154.238 102.823 154.02 103.512 154.02 104.43V115.557C154.02 116.522 154.261 117.234 154.744 117.693C155.226 118.13 155.915 118.348 156.811 118.348Z" fill="#64E021"/>
<path d="M147.67 31.2126L143.208 43.2781L141.227 42.5455L145.065 32.1683L138.829 29.8626L134.992 40.2398L133.011 39.5072L137.473 27.4418L147.67 31.2126Z" fill="#64E021"/>
<path d="M159.376 45.1661C158.825 46.0861 158.213 46.8292 157.539 47.3954C156.887 47.9561 156.186 48.3481 155.437 48.5715C154.702 48.803 153.934 48.8562 153.133 48.7311C152.353 48.6005 151.572 48.3012 150.789 47.8331C150.062 47.3978 149.463 46.8718 148.993 46.2551C148.531 45.6246 148.221 44.9267 148.063 44.1614C147.906 43.396 147.906 42.5852 148.064 41.7288C148.244 40.867 148.609 39.976 149.159 39.056C149.89 37.8339 150.712 36.9272 151.625 36.336C152.546 35.731 153.523 35.4387 154.554 35.4592C155.594 35.466 156.643 35.7855 157.7 36.4179C158.703 37.0174 159.446 37.7696 159.93 38.6744C160.436 39.5737 160.648 40.5763 160.564 41.6823C160.503 42.7827 160.106 43.944 159.376 45.1661ZM151.034 40.177C150.516 41.0421 150.174 41.863 150.008 42.6398C149.864 43.4111 149.929 44.1121 150.205 44.7428C150.48 45.3735 150.988 45.9106 151.73 46.3541C152.471 46.7976 153.185 46.9914 153.871 46.9355C154.557 46.8797 155.199 46.6016 155.796 46.1014C156.415 45.5956 156.984 44.9102 157.501 44.0451C158.027 43.1663 158.358 42.3481 158.494 41.5905C158.63 40.833 158.556 40.1458 158.273 39.5288C158.011 38.9062 157.503 38.3692 156.747 37.9175C155.622 37.244 154.583 37.1262 153.631 37.5638C152.68 38.0015 151.814 38.8725 151.034 40.177Z" fill="#64E021"/>
<path d="M167.914 43.8486L164.37 47.8588L169.603 52.4839L173.147 48.4736L174.73 49.8723L166.211 59.5112L164.628 58.1126L168.427 53.8146L163.194 49.1895L159.395 53.4875L157.813 52.0889L166.332 42.4499L167.914 43.8486Z" fill="#64E021"/>
<path d="M181.213 59.2972C182.177 60.5338 182.619 61.6601 182.539 62.6762C182.459 63.6923 181.825 64.6627 180.639 65.5874L173.731 70.9735L172.786 69.7622L173.974 68.3189L173.915 68.2432C173.323 68.2383 172.777 68.1764 172.279 68.0577C171.803 67.9418 171.351 67.7262 170.923 67.411C170.504 67.1084 170.074 66.6731 169.631 66.1053C169.159 65.4996 168.838 64.8671 168.669 64.2078C168.51 63.561 168.543 62.9267 168.768 62.3048C169.006 61.673 169.465 61.0915 170.147 60.5603C171.156 59.7733 172.242 59.5657 173.404 59.9377C174.579 60.2998 175.836 61.2876 177.176 62.9013L178.575 64.5794L179.181 64.1072C180.026 63.4481 180.47 62.8077 180.513 62.186C180.556 61.5643 180.317 60.919 179.795 60.2502C179.382 59.7203 178.907 59.2795 178.369 58.9279C177.843 58.5664 177.318 58.2562 176.791 57.9972L177.642 56.5123C178.226 56.767 178.836 57.1332 179.472 57.611C180.121 58.079 180.701 58.641 181.213 59.2972ZM176.183 64.0096C175.149 62.7872 174.263 62.0676 173.527 61.8509C172.799 61.6469 172.114 61.7957 171.471 62.2974C170.903 62.7401 170.619 63.2351 170.62 63.7824C170.63 64.3423 170.847 64.8936 171.27 65.4361C171.939 66.2942 172.728 66.8251 173.638 67.029C174.56 67.2229 175.513 66.9363 176.497 66.1689L177.406 65.4606L176.183 64.0096Z" fill="#64E021"/>
<path d="M191.029 76.4003L181.181 81.4949L182.041 83.1576L176.499 86.0247L175.561 84.2128L179.526 82.1617L175.413 74.2106L171.448 76.2617L170.522 74.4711L176.064 71.604L176.538 72.5206C177.786 72.7038 179.053 72.7329 180.339 72.6079C181.647 72.4897 182.939 72.2358 184.215 71.8461C185.512 71.4633 186.747 70.9776 187.919 70.389L191.029 76.4003ZM187.309 72.8126C186.313 73.2557 185.234 73.6247 184.071 73.9198C182.923 74.2075 181.781 74.4021 180.645 74.5036C179.515 74.6193 178.481 74.6049 177.542 74.4604L180.243 79.683L188.621 75.3493L187.309 72.8126Z" fill="#64E021"/>
<path d="M41.6192 139.438L42.9684 141.306L34.7307 140.477L32.8081 149.209L31.3745 147.225L33.2647 138.694L27.9732 142.517L26.7364 140.805L37.1638 133.271L38.4006 134.983L33.3425 138.638L41.6192 139.438Z" fill="#64E021"/>
<path d="M45.7863 148.36L41.846 151.982L46.5724 157.124L50.5127 153.502L51.9419 155.057L42.4712 163.763L41.0419 162.208L45.2649 158.326L40.5385 153.184L36.3156 157.066L34.8863 155.511L44.357 146.806L45.7863 148.36Z" fill="#64E021"/>
<path d="M58.9985 171.719C59.0933 171.61 59.2363 171.459 59.4274 171.265C59.596 171.072 59.7863 170.867 59.9985 170.648C60.2002 170.442 60.3966 170.242 60.5877 170.048C60.7683 169.866 60.9173 169.72 61.0347 169.61L48.7554 173.186L46.8045 171.479L55.2739 161.797L56.7552 163.092L51.762 168.801C51.5935 168.993 51.3723 169.246 51.0984 169.559C50.8124 169.862 50.5318 170.159 50.2564 170.449C49.9705 170.752 49.753 170.976 49.604 171.122L61.8313 167.533L63.8003 169.255L55.3309 178.937L53.8316 177.626L58.9985 171.719Z" fill="#64E021"/>
<path d="M75.6912 177.109L74.7491 178.614L69.8866 175.572L64.0049 184.971L62.2145 183.851L69.0383 172.946L75.6912 177.109Z" fill="#64E021"/>
<path d="M102.613 184.636C104.162 184.873 105.257 185.388 105.897 186.182C106.536 186.976 106.742 188.116 106.515 189.603L105.19 198.262L103.672 198.03L103.544 196.165L103.449 196.151C103.016 196.554 102.577 196.883 102.133 197.139C101.707 197.382 101.231 197.535 100.703 197.6C100.191 197.668 99.5788 197.647 98.8671 197.538C98.1079 197.422 97.4405 197.182 96.8648 196.819C96.3049 196.458 95.8933 195.975 95.63 195.368C95.3691 194.745 95.304 194.007 95.4346 193.153C95.6281 191.887 96.275 190.991 97.3754 190.463C98.4783 189.92 100.07 189.775 102.152 190.028L104.322 190.287L104.438 189.528C104.6 188.468 104.483 187.698 104.087 187.217C103.692 186.735 103.075 186.43 102.236 186.302C101.572 186.201 100.924 186.207 100.291 186.32C99.6612 186.418 99.0658 186.554 98.5052 186.727L98.1041 185.063C98.7036 184.847 99.3987 184.695 100.189 184.605C100.982 184.5 101.79 184.51 102.613 184.636ZM102.192 191.515C100.6 191.337 99.4625 191.422 98.778 191.77C98.1092 192.121 97.7132 192.7 97.5899 193.507C97.481 194.218 97.6147 194.773 97.991 195.17C98.383 195.57 98.9191 195.822 99.5992 195.926C100.675 196.091 101.613 195.935 102.414 195.458C103.218 194.966 103.714 194.103 103.903 192.87L104.077 191.731L102.192 191.515Z" fill="#64E021"/>
<path d="M124.35 188.281C124.349 189.081 124.109 189.704 123.628 190.152C123.148 190.599 122.531 190.902 121.779 191.062L121.779 191.158C122.579 191.271 123.275 191.559 123.866 192.024C124.458 192.473 124.753 193.177 124.752 194.137C124.751 194.681 124.647 195.185 124.438 195.649C124.245 196.112 123.941 196.512 123.525 196.848C123.108 197.183 122.572 197.447 121.916 197.638C121.26 197.813 120.467 197.9 119.539 197.899L113.995 197.893L114.01 185.029L119.53 185.035C120.442 185.036 121.258 185.141 121.978 185.35C122.713 185.543 123.289 185.879 123.705 186.36C124.136 186.824 124.351 187.465 124.35 188.281ZM122.568 194.135C122.569 193.399 122.289 192.87 121.729 192.55C121.17 192.229 120.346 192.068 119.258 192.067L116.114 192.063L116.109 196.191L119.301 196.195C120.357 196.196 121.166 196.045 121.726 195.742C122.286 195.422 122.567 194.887 122.568 194.135ZM122.214 188.542C122.215 187.934 121.991 187.494 121.544 187.221C121.112 186.933 120.4 186.788 119.408 186.787L116.12 186.783L116.116 190.311L119.02 190.314C120.06 190.316 120.852 190.173 121.397 189.885C121.941 189.598 122.213 189.15 122.214 188.542Z" fill="#64E021"/>
<path d="M138.996 181.462L134.988 182.716L138.298 193.298L136.305 193.922L132.995 183.339L129.032 184.579L128.502 182.883L138.466 179.767L138.996 181.462Z" fill="#64E021"/>
<path d="M154.902 178.805C155.399 179.755 155.713 180.665 155.843 181.536C155.98 182.385 155.948 183.187 155.747 183.942C155.56 184.69 155.204 185.373 154.679 185.991C154.16 186.587 153.496 187.096 152.688 187.519C151.937 187.912 151.175 188.148 150.404 188.226C149.625 188.29 148.868 188.189 148.133 187.924C147.399 187.658 146.707 187.234 146.06 186.652C145.419 186.048 144.85 185.271 144.354 184.321C143.694 183.059 143.35 181.885 143.323 180.797C143.289 179.696 143.55 178.711 144.107 177.842C144.656 176.959 145.477 176.232 146.569 175.661C147.604 175.119 148.633 174.879 149.658 174.939C150.689 174.977 151.654 175.321 152.554 175.971C153.46 176.598 154.242 177.543 154.902 178.805ZM146.289 183.309C146.756 184.202 147.277 184.923 147.853 185.471C148.435 185.997 149.067 186.307 149.748 186.402C150.43 186.497 151.153 186.344 151.919 185.944C152.685 185.544 153.223 185.037 153.534 184.423C153.845 183.809 153.943 183.116 153.829 182.345C153.721 181.553 153.434 180.71 152.967 179.817C152.492 178.909 151.968 178.2 151.393 177.688C150.819 177.176 150.194 176.879 149.52 176.799C148.852 176.696 148.129 176.849 147.349 177.257C146.186 177.865 145.543 178.689 145.419 179.729C145.295 180.769 145.585 181.962 146.289 183.309Z" fill="#64E021"/>
<path d="M161.348 164.88C162.598 163.907 163.941 163.562 165.376 163.844C166.824 164.115 168.231 165.129 169.597 166.884C170.491 168.033 171.071 169.143 171.336 170.214C171.605 171.262 171.58 172.234 171.263 173.129C170.949 174.002 170.369 174.768 169.523 175.426C169.005 175.829 168.49 176.118 167.978 176.294C167.466 176.469 166.981 176.563 166.524 176.574C166.069 176.563 165.638 176.503 165.229 176.395L165.115 176.484C165.308 176.679 165.544 176.931 165.825 177.239C166.106 177.548 166.339 177.822 166.526 178.062L169.769 182.229L168.102 183.526L156.665 168.828L158.029 167.766L159.332 168.972L159.408 168.913C159.384 168.466 159.417 168.014 159.508 167.558C159.612 167.092 159.806 166.637 160.089 166.194C160.385 165.74 160.805 165.302 161.348 164.88ZM162.135 166.517C161.453 167.048 161.007 167.608 160.797 168.197C160.576 168.774 160.573 169.395 160.786 170.06C161 170.725 161.41 171.461 162.016 172.266L162.267 172.588C162.915 173.421 163.554 174.06 164.183 174.503C164.811 174.946 165.452 175.158 166.105 175.136C166.77 175.105 167.468 174.805 168.201 174.235C168.82 173.754 169.192 173.19 169.318 172.545C169.457 171.889 169.395 171.197 169.133 170.469C168.873 169.718 168.448 168.964 167.859 168.207C166.955 167.045 166.005 166.294 165.01 165.953C164.028 165.602 163.07 165.79 162.135 166.517Z" fill="#64E021"/>
<path d="M170.904 154.231C172.016 153.125 173.081 152.552 174.1 152.51C175.118 152.468 176.157 152.98 177.217 154.047L183.392 160.261L182.302 161.344L180.727 160.338L180.659 160.405C180.725 160.994 180.729 161.543 180.671 162.052C180.612 162.538 180.453 163.013 180.191 163.476C179.94 163.927 179.56 164.407 179.049 164.914C178.504 165.456 177.915 165.85 177.28 166.097C176.657 166.332 176.024 166.375 175.379 166.226C174.724 166.066 174.091 165.679 173.482 165.066C172.58 164.158 172.244 163.105 172.474 161.906C172.693 160.696 173.523 159.33 174.965 157.807L176.464 156.217L175.922 155.672C175.167 154.912 174.478 154.548 173.855 154.579C173.233 154.611 172.621 154.926 172.02 155.524C171.543 155.998 171.162 156.522 170.878 157.098C170.582 157.663 170.336 158.222 170.142 158.776L168.566 158.109C168.749 157.499 169.04 156.849 169.438 156.16C169.825 155.46 170.314 154.817 170.904 154.231ZM176.184 158.66C175.094 159.833 174.486 160.798 174.359 161.556C174.244 162.302 174.473 162.965 175.048 163.544C175.556 164.055 176.081 164.277 176.625 164.211C177.179 164.133 177.701 163.852 178.189 163.367C178.96 162.6 179.393 161.753 179.487 160.826C179.569 159.887 179.17 158.975 178.29 158.09L177.479 157.273L176.184 158.66Z" fill="#64E021"/>
<path d="M185.627 146.183L174.947 139.008L176.034 137.454L186.411 145.062L185.627 146.183ZM189.643 148.815C189.497 149.025 189.318 149.057 189.109 148.91L187.535 147.81C187.325 147.663 187.294 147.485 187.441 147.275L188.059 146.39C188.206 146.18 188.384 146.149 188.594 146.295L190.168 147.396C190.273 147.469 190.328 147.557 190.335 147.659C190.342 147.761 190.317 147.852 190.262 147.93L189.643 148.815Z" fill="#64E021"/>
<line x1="86.7885" y1="135.095" x2="132.721" y2="135.095" stroke="#64E021"/>
<line x1="86.7885" y1="83.9612" x2="132.721" y2="83.9612" stroke="#64E021"/>
<defs>
<filter id="filter0_d_747_565" x="0" y="0" width="219.54" height="220" filterUnits="userSpaceOnUse" color-interpolation-filters="sRGB">
<feFlood flood-opacity="0" result="BackgroundImageFix"/>
<feColorMatrix in="SourceAlpha" type="matrix" values="0 0 0 0 0 0 0 0 0 0 0 0 0 0 0 0 0 0 127 0" result="hardAlpha"/>
<feOffset/>
<feGaussianBlur stdDeviation="5"/>
<feComposite in2="hardAlpha" operator="out"/>
<feColorMatrix type="matrix" values="0 0 0 0 0 0 0 0 0 0 0 0 0 0 0 0 0 0 0.1 0"/>
<feBlend mode="normal" in2="BackgroundImageFix" result="effect1_dropShadow_747_565"/>
<feBlend mode="normal" in="SourceGraphic" in2="effect1_dropShadow_747_565" result="shape"/>
</filter>
</defs>
</svg>
